<svg version="1.1" id="Layer_1" xmlns="http://www.w3.org/2000/svg" xmlns:xlink="http://www.w3.org/1999/xlink" x="0px" y="0px"
	 width="100%" viewBox="0 0 496 496" enable-background="new 0 0 496 496" xml:space="preserve">
<path fill="#000000" opacity="1.000000" stroke="none" 
	d="
M417.308228,264.772614 
	C414.384216,294.654449 405.178589,321.857605 388.029968,346.023102 
	C361.000458,384.112366 324.475067,407.636505 278.295624,415.347870 
	C193.688705,429.476105 111.800743,377.538727 90.543716,294.975159 
	C74.131142,231.227692 89.678825,175.245102 137.362335,129.308105 
	C163.598175,104.033203 195.385162,89.036751 231.745132,85.757729 
	C299.808258,79.619652 353.400177,105.345909 391.587952,161.941605 
	C406.132629,183.497345 413.811768,207.876984 416.492371,233.872955 
	C417.540985,244.042587 417.075287,254.158813 417.308228,264.772614 
M88.496223,264.023010 
	C89.163940,269.119690 89.530869,274.277130 90.545738,279.303711 
	C101.071648,331.437866 129.513199,370.554657 176.445236,395.681244 
	C208.999176,413.109985 243.959351,418.153351 280.065033,411.339355 
	C321.822601,403.458771 356.228394,382.478729 381.386414,348.015411 
	C417.464478,298.592957 424.019012,244.565918 401.003021,188.223526 
	C372.852478,119.312065 300.403625,78.317207 226.053085,90.301949 
	C179.299408,97.838280 142.738220,121.667793 116.014534,160.425568 
	C94.750610,191.264923 86.123940,225.786011 88.496223,264.023010 
z"/>
<path fill="#000000" opacity="1.000000" stroke="none" 
	d="
M267.874054,237.296265 
	C269.588898,241.123550 270.289673,245.636673 272.922150,247.810287 
	C275.710693,250.112762 279.674683,246.637390 283.215820,246.062668 
	C300.853577,243.200043 318.365021,256.008148 321.279358,274.232361 
	C325.958069,303.489899 304.778137,328.232605 275.110107,328.474518 
	C265.753967,328.550751 256.800995,327.532104 248.761444,322.396759 
	C246.399414,320.888031 244.440735,321.621002 242.202469,322.547699 
	C225.756973,329.356659 210.468475,327.027679 196.846375,315.805847 
	C180.563766,302.392242 177.734329,274.896942 190.443329,258.152008 
	C198.610931,247.390701 214.700592,242.894592 224.696640,249.132401 
	C227.940323,251.156540 229.818893,250.339584 231.369507,246.558517 
	C234.950806,237.825775 239.191879,218.230774 237.978165,210.826752 
	C230.805771,211.215836 223.704636,212.812332 216.324722,211.519012 
	C198.653778,208.422165 183.347672,194.658829 178.997971,177.324860 
	C177.991394,173.313614 178.930237,171.401276 183.135620,170.158188 
	C201.966721,164.591873 218.590256,168.645340 233.575562,180.861252 
	C235.085739,182.092346 236.165634,183.955872 238.287140,184.312607 
	C239.885284,183.595123 240.220581,182.024918 240.918945,180.739990 
	C247.445404,168.732162 257.705994,162.115677 271.024567,160.056351 
	C277.282349,159.088791 278.136749,159.792999 279.642181,165.925491 
	C283.935577,183.414993 276.051331,200.010895 260.569885,206.404373 
	C258.103973,207.422729 255.198120,206.919647 252.599548,209.207199 
	C258.071747,218.122208 263.654266,227.139862 267.874054,237.296265 
M256.030579,262.371185 
	C234.005692,266.473969 229.113052,291.150635 242.930023,306.755219 
	C256.318359,321.875702 280.455109,324.324280 297.483307,312.344482 
	C314.755890,300.192780 318.436646,276.254303 305.280365,261.634674 
	C298.830933,254.467911 286.785919,252.066574 278.194824,256.198029 
	C276.445770,257.039154 274.890015,257.931976 275.397186,260.267090 
	C275.922821,262.687256 277.848572,262.515442 279.705414,262.693024 
	C281.320160,262.847443 283.229370,261.669342 284.861420,263.589203 
	C280.831482,266.484375 276.805145,266.902527 272.393463,265.519165 
	C267.336700,263.933563 262.386353,261.723846 256.030579,262.371185 
M190.893829,288.701508 
	C193.192200,302.884735 201.507217,312.077301 214.793320,316.778625 
	C223.261810,319.775238 231.576904,319.178253 240.067398,314.088867 
	C231.939987,305.126343 228.072403,295.145691 229.067169,283.590759 
	C230.095520,271.645782 237.377228,263.863586 248.150146,257.426605 
	C242.350647,255.798325 238.330276,256.019806 235.080261,258.805969 
	C234.831451,261.160553 237.907257,260.199432 236.815750,262.802063 
	C231.861618,264.505371 227.860992,262.203003 224.059052,259.031616 
	C216.756195,252.939926 209.901901,252.649567 202.407867,258.585358 
	C192.981796,266.051453 190.273926,276.386932 190.893829,288.701508 
M263.992767,253.926422 
	C266.352905,252.544937 265.005615,250.640930 264.479858,249.081055 
	C261.765900,241.029388 258.151031,233.367798 253.909058,226.014786 
	C251.545959,221.918594 249.647720,217.483749 246.007309,213.807968 
	C245.120285,219.838287 244.517166,225.423248 243.430649,230.912537 
	C242.315552,236.546127 240.727905,242.086166 239.407639,247.422318 
	C240.798874,248.866638 242.221756,248.728531 243.481781,248.577942 
	C248.295074,248.002731 252.374329,249.847351 255.927963,252.667511 
	C258.310883,254.558609 260.601593,254.929245 263.992767,253.926422 
M222.098083,182.491302 
	C220.068008,181.628021 218.621353,179.311539 215.971390,179.904892 
	C214.954742,188.979431 219.004425,194.475418 226.503937,193.911316 
	C225.726395,190.024521 227.052948,185.613419 222.098083,182.491302 
M212.587814,202.312714 
	C216.153397,202.052002 218.097656,199.261047 220.911362,197.465118 
	C211.068619,191.353134 207.717545,191.305435 202.992996,197.075546 
	C205.332306,199.876556 208.703751,200.858749 212.587814,202.312714 
M256.736877,188.099243 
	C260.174408,183.822586 257.459045,179.906921 256.644501,175.553970 
	C249.780838,179.549042 248.139069,186.337387 252.193695,191.925674 
	C254.158508,191.593964 255.124847,189.982910 256.736877,188.099243 
M212.741104,187.046295 
	C212.436722,185.585022 212.083786,184.131927 211.836456,182.661057 
	C210.814148,176.580750 208.367889,175.190262 202.063904,177.146851 
	C203.240906,184.900375 205.572266,187.185776 212.741104,187.046295 
M200.606781,193.033951 
	C201.991302,191.940613 204.087921,191.851089 205.252350,189.450424 
	C200.238602,186.767639 195.269073,184.108505 190.299545,181.449371 
	C190.035049,181.794998 189.770538,182.140610 189.506027,182.486221 
	C192.220062,186.801636 193.764938,192.157608 200.606781,193.033951 
M260.529846,173.165329 
	C260.060913,175.964523 260.985107,178.397766 262.205475,181.166183 
	C266.003662,177.150772 267.893860,172.672440 270.579987,167.783493 
	C266.429962,168.765717 263.213898,169.758667 260.529846,173.165329 
M262.757507,191.869568 
	C266.537170,191.014267 269.965149,189.791489 270.294495,184.789444 
	C264.670441,184.786087 261.344818,187.525055 258.958221,191.915405 
	C260.229004,192.849472 261.153931,192.246582 262.757507,191.869568 
M233.207184,202.531586 
	C227.275162,198.556610 225.575806,198.639908 220.930099,203.465134 
	C225.171738,205.638351 228.991882,203.612259 233.207184,202.531586 
M197.497177,176.354019 
	C195.133621,174.939285 193.214905,176.843857 189.809402,176.851639 
	C193.247162,178.828690 195.320297,180.620178 198.126144,180.894409 
	C198.990616,179.275803 198.279587,178.101532 197.497177,176.354019 
M230.344940,192.312653 
	C230.452362,195.524673 231.393539,197.804367 235.759689,197.460098 
	C234.901703,193.993958 233.179016,191.945480 231.067368,190.513824 
	C229.491226,189.445251 230.495071,191.240921 230.344940,192.312653 
M252.914948,200.095612 
	C254.941284,199.326157 257.484100,199.714279 259.056702,197.326233 
	C257.145660,195.620667 255.091629,195.779907 253.271072,196.921371 
	C252.381927,197.478851 249.741074,198.294052 252.914948,200.095612 
M272.794037,174.817795 
	C272.706207,174.508301 272.643646,174.187317 272.511780,173.897873 
	C272.481079,173.830536 272.118408,173.803131 272.070770,173.871094 
	C270.805634,175.676422 269.330048,177.376587 268.740601,179.810059 
	C272.030487,179.775284 272.911682,178.006378 272.794037,174.817795 
M246.059311,191.785995 
	C245.783554,193.689499 244.694244,195.607513 246.172699,198.258835 
	C247.949615,195.441360 248.908417,193.393707 246.059311,191.785995 
z"/>
<path fill="#000000" opacity="1.000000" stroke="none" 
	d="
M214.205490,355.732239 
	C254.707458,369.741302 300.049896,359.737488 330.728485,327.737244 
	C339.698608,318.380676 346.793793,307.807953 352.298065,296.112122 
	C353.031433,294.553833 353.261566,292.490845 355.522736,292.095612 
	C357.328430,299.582916 338.664185,327.181458 323.965332,338.552734 
	C284.589905,369.014221 242.107468,373.441528 197.637192,351.694061 
	C172.475128,339.388947 155.412247,318.864807 144.955414,293.156952 
	C145.632111,292.621765 146.308807,292.086578 146.985504,291.551361 
	C153.996094,305.820221 161.835312,319.465485 173.445496,330.438049 
	C185.225632,341.571259 198.591858,350.076141 214.205490,355.732239 
z"/>
<path fill="#000000" opacity="1.000000" stroke="none" 
	d="
M245.240753,140.250031 
	C202.171906,143.219208 171.615158,165.070084 149.806412,201.043701 
	C152.284073,191.114609 158.183212,183.434052 164.486923,176.263748 
	C183.586731,154.538193 207.525345,141.092529 236.371277,137.957047 
	C268.465393,134.468475 297.869385,141.847214 323.229309,162.734955 
	C335.796295,173.085770 345.604980,185.502014 353.192688,200.815308 
	C349.096832,200.922638 348.652527,198.412827 347.701660,196.763992 
	C333.277527,171.752029 312.340698,154.610062 285.083527,145.336197 
	C272.368866,141.010239 259.139893,139.597015 245.240753,140.250031 
z"/>
<path fill="#000000" opacity="1.000000" stroke="none" 
	d="
M155.180435,355.694824 
	C154.505096,352.490509 153.948563,349.501862 156.965073,347.770111 
	C159.895813,346.087585 163.557785,346.446106 166.311279,347.487976 
	C170.672729,349.138245 169.011292,353.807770 168.806854,357.051178 
	C168.612396,360.136597 165.869690,361.510620 162.486053,360.865021 
	C159.336426,360.264069 154.575439,362.333344 155.180435,355.694824 
z"/>
<path fill="#000000" opacity="1.000000" stroke="none" 
	d="
M298.987640,380.864380 
	C297.817932,378.696106 296.792084,376.852386 295.579590,374.673187 
	C298.614746,372.613007 302.253906,369.095947 305.411896,371.681458 
	C307.906372,373.723663 311.587128,377.190643 310.911255,381.178986 
	C310.084473,386.057556 305.238586,386.332123 301.397552,387.578979 
	C300.540100,385.161011 299.835785,383.174988 298.987640,380.864380 
z"/>
<path fill="#000000" opacity="1.000000" stroke="none" 
	d="
M209.148651,388.053467 
	C209.303162,390.528931 209.038742,392.423767 206.768524,393.655182 
	C204.806000,392.392914 205.767838,389.018677 202.481400,388.330444 
	C199.880615,387.785797 198.117783,388.882996 195.229599,390.035370 
	C195.377014,382.632385 205.501602,381.000580 202.819046,373.240051 
	C207.286270,373.849304 210.634262,374.966248 213.857773,377.318207 
	C211.549118,380.561920 209.358063,383.690125 209.148651,388.053467 
M204.419205,385.384918 
	C206.245850,383.276337 207.229050,380.867554 206.819794,377.934601 
	C205.988541,380.546967 201.513290,381.591614 204.419205,385.384918 
z"/>
<path fill="#000000" opacity="1.000000" stroke="none" 
	d="
M386.347717,300.083740 
	C383.280701,299.412384 379.698334,300.675110 378.763214,296.421844 
	C377.551331,290.909790 380.358093,288.263214 385.741638,289.881683 
	C387.173859,290.312256 388.565674,290.921448 390.023102,291.214966 
	C393.227875,291.860504 395.404480,292.990448 393.880371,296.891266 
	C392.511719,300.394226 390.552002,302.271698 386.347717,300.083740 
z"/>
<path fill="#000000" opacity="1.000000" stroke="none" 
	d="
M103.648621,255.542297 
	C106.755875,255.167160 109.463753,254.312576 112.006401,255.436508 
	C112.224342,257.963013 109.504097,257.293365 109.258896,258.985748 
	C109.480309,260.988831 112.281540,260.251282 112.754913,262.384491 
	C112.977219,264.526093 110.074074,264.300354 109.416580,265.961426 
	C109.925613,267.563477 112.498566,266.453003 112.692451,269.055664 
	C108.106888,270.599548 103.474075,270.679138 98.278824,269.735596 
	C99.970734,264.965546 105.119461,265.672974 107.159233,262.454529 
	C104.378326,260.274170 100.241928,260.458893 97.771240,257.631104 
	C99.160774,254.814468 101.446632,255.983414 103.648621,255.542297 
z"/>
<path fill="#000000" opacity="1.000000" stroke="none" 
	d="
M383.763306,208.622787 
	C386.980164,208.130112 389.548737,205.799362 393.043488,207.345840 
	C392.140900,211.875977 387.230469,212.512344 385.081055,215.938278 
	C388.529236,217.572678 392.913574,216.325546 396.695496,219.841736 
	C391.561493,221.892899 387.113342,223.690811 381.676025,223.924103 
	C382.777222,220.030716 386.217133,221.419403 387.999481,219.677200 
	C385.350769,218.856964 382.387451,219.243484 380.231720,217.210083 
	C380.117676,214.657394 382.852051,214.294296 383.742615,212.089798 
	C382.300507,211.083252 380.250977,213.167465 378.786102,211.346146 
	C379.317108,208.847977 381.842590,209.533768 383.763306,208.622787 
z"/>
<path fill="#000000" opacity="1.000000" stroke="none" 
	d="
M282.373383,392.627319 
	C280.925232,395.229706 278.541840,394.711609 276.007751,395.110535 
	C275.838531,390.245178 275.097687,385.747314 273.104858,381.637939 
	C274.900360,379.810364 277.085144,379.586670 279.183655,379.187073 
	C281.469208,378.751862 283.642731,379.044464 284.714661,381.371735 
	C285.854523,383.846619 285.588257,386.324066 283.283813,388.081299 
	C281.672577,389.309937 279.451935,390.143585 282.373383,392.627319 
z"/>
<path fill="#000000" opacity="1.000000" stroke="none" 
	d="
M255.601746,397.499268 
	C253.587280,397.647064 251.962814,398.388916 250.022995,397.287354 
	C250.454453,392.794586 251.531006,388.099060 249.334869,383.445526 
	C252.912079,382.371063 256.799408,381.465729 259.164490,383.478485 
	C261.971497,385.867371 256.842590,388.826996 258.296509,391.679321 
	C257.102966,392.954681 255.722809,391.239288 254.663391,392.780243 
	C255.063339,394.835297 256.303375,395.059631 258.116974,394.114044 
	C258.826752,393.743988 259.443909,393.060974 260.905548,393.651581 
	C261.860046,397.986053 258.415619,397.158264 255.601746,397.499268 
z"/>
<path fill="#000000" opacity="1.000000" stroke="none" 
	d="
M301.990387,120.643387 
	C300.157288,123.302940 302.073547,126.688278 299.429810,129.146545 
	C296.223236,126.230652 293.050690,123.153633 288.134277,125.849785 
	C287.925385,124.771416 287.487793,123.895638 287.738434,123.596497 
	C290.900574,119.822365 293.499725,115.837814 295.539856,111.241104 
	C296.693878,108.640915 299.979584,111.535515 302.263947,111.996437 
	C304.069275,112.360710 304.339661,113.930313 303.759216,115.584045 
	C303.209015,117.151680 302.657135,118.718735 301.990387,120.643387 
M294.873260,119.694206 
	C293.818451,121.189514 293.731598,122.443680 295.744843,123.167076 
	C297.230438,123.700897 298.160919,122.755005 298.363708,121.628044 
	C298.813385,119.128960 300.756104,116.909935 300.054047,113.960358 
	C295.811676,113.504959 296.586304,117.333145 294.873260,119.694206 
z"/>
<path fill="#000000" opacity="1.000000" stroke="none" 
	d="
M365.173828,157.517426 
	C364.710052,160.479614 361.314514,160.675049 360.437225,163.259705 
	C363.804321,164.481689 367.381409,162.637756 371.553680,164.516815 
	C367.534210,168.346039 364.041931,171.741058 358.968475,173.852783 
	C358.534363,170.076828 361.988647,169.890793 362.780273,167.546722 
	C360.148346,164.536499 355.909241,169.184677 352.928253,165.096313 
	C356.859192,162.296387 359.181366,157.289490 365.173828,157.517426 
z"/>
<path fill="#000000" opacity="1.000000" stroke="none" 
	d="
M183.968063,368.867920 
	C185.570358,369.071472 185.986389,367.937073 186.704193,367.026733 
	C188.441116,364.823822 188.503708,364.873169 191.282364,367.673645 
	C183.080765,376.034515 178.419083,377.757538 175.133118,373.231781 
	C182.132935,371.733673 178.499542,365.379944 180.571579,361.449860 
	C182.959091,360.725128 184.207672,362.303284 185.550461,363.727356 
	C185.817566,365.735962 183.221405,366.660339 183.968063,368.867920 
z"/>
<path fill="#000000" opacity="1.000000" stroke="none" 
	d="
M157.441162,149.380341 
	C154.958054,146.275681 152.690948,143.434906 150.494629,140.540436 
	C150.268311,140.242188 150.464233,139.623550 150.464233,137.727768 
	C153.827042,141.664505 157.276627,140.053238 160.776337,139.794312 
	C163.674835,139.579880 165.227203,141.793594 164.968155,144.734451 
	C164.666977,148.153214 161.228729,150.369507 157.441162,149.380341 
z"/>
<path fill="#000000" opacity="1.000000" stroke="none" 
	d="
M338.151306,351.570404 
	C338.721558,352.539734 339.092133,353.315552 339.669678,353.879333 
	C343.584351,357.700623 345.331360,357.218048 346.905304,351.676849 
	C349.917114,352.259766 350.017883,353.945374 348.738342,356.191620 
	C347.092804,359.080261 344.512604,360.605011 341.287811,359.927032 
	C337.609131,359.153564 335.120331,356.810028 334.677795,352.820862 
	C334.286774,349.295837 335.734985,346.544525 338.804871,345.002777 
	C341.522034,343.638153 342.638031,345.336151 342.998535,347.512299 
	C341.865723,349.949951 337.457886,347.071960 338.151306,351.570404 
z"/>
<path fill="#000000" opacity="1.000000" stroke="none" 
	d="
M323.535461,125.503426 
	C320.318542,125.756920 320.112183,128.570435 318.734131,130.297119 
	C317.579193,131.744247 317.506073,134.200012 314.966461,134.418442 
	C314.404327,131.983688 318.189789,123.492996 320.514984,122.198471 
	C323.307556,120.643745 325.101166,123.206177 327.277130,124.107651 
	C330.291718,125.356552 330.664490,127.311615 328.850586,129.991959 
	C326.855408,132.940170 325.957092,136.653214 322.534302,139.103836 
	C320.408722,135.387009 323.776703,133.537659 324.778687,131.126907 
	C325.687744,128.939621 327.406921,126.908028 323.535461,125.503426 
z"/>
<path fill="#000000" opacity="1.000000" stroke="none" 
	d="
M225.315155,393.582306 
	C223.030991,389.590118 223.591202,386.106628 226.233902,383.087402 
	C228.283783,380.745483 230.965256,380.454712 234.007370,381.368927 
	C237.545029,382.432037 237.697128,384.102448 235.754059,386.627319 
	C233.318436,387.123993 233.037598,381.712524 230.080948,384.780640 
	C228.189240,386.743591 227.808594,389.264801 228.820770,391.754456 
	C230.099289,394.899231 232.579865,392.225433 234.402451,392.596436 
	C235.590622,394.031036 235.233582,395.416809 233.812744,395.889984 
	C230.767059,396.904358 227.899277,396.278168 225.315155,393.582306 
z"/>
<path fill="#000000" opacity="1.000000" stroke="none" 
	d="
M188.308136,130.895081 
	C186.723755,132.918198 185.932541,131.523560 185.253067,130.407608 
	C184.109375,128.529266 182.922485,127.122719 180.496918,128.557404 
	C177.826218,130.137085 179.354950,131.870316 180.201538,133.631027 
	C180.563049,134.382919 180.795944,135.200668 179.180115,136.828064 
	C175.841095,132.880692 173.983505,128.373840 171.556656,123.789314 
	C175.497360,122.458511 175.796158,128.192596 179.521072,126.073814 
	C183.331696,123.906296 179.011703,121.263863 181.150543,118.038216 
	C184.412994,122.075661 186.413864,126.308037 188.308136,130.895081 
z"/>
<path fill="#000000" opacity="1.000000" stroke="none" 
	d="
M134.310196,154.437836 
	C135.296509,153.278152 136.332504,152.133209 137.436005,152.805389 
	C141.396637,155.217834 145.284058,157.800171 148.247650,162.477905 
	C144.318649,163.105103 143.173401,160.368881 141.228928,159.196350 
	C139.664963,158.253250 138.287277,155.299255 136.365936,157.194687 
	C134.272095,159.260315 137.273270,160.501755 138.463242,161.786163 
	C142.017197,165.622177 142.385300,166.734299 139.780151,171.849457 
	C139.304489,165.811890 135.608368,163.536346 132.660614,160.588364 
	C130.121277,158.048874 133.000961,156.514679 134.310196,154.437836 
z"/>
<path fill="#000000" opacity="1.000000" stroke="none" 
	d="
M117.434639,295.017548 
	C116.363037,296.133301 115.610512,297.101257 114.624115,297.644562 
	C110.910912,299.689667 107.208183,299.853577 104.161278,296.502258 
	C102.139130,294.278076 102.182846,291.644501 103.916382,289.145935 
	C106.039955,286.085205 111.432251,284.522095 114.729591,286.233215 
	C118.243309,288.056671 119.108749,291.018738 117.434639,295.017548 
M114.122032,289.163849 
	C111.234436,287.534027 108.712067,288.324219 106.638824,290.569824 
	C105.222183,292.104248 105.087563,293.916107 107.116692,295.131744 
	C109.095352,296.317200 111.277443,296.249786 113.146461,294.926208 
	C114.950600,293.648651 116.457001,292.037964 114.122032,289.163849 
z"/>
<path fill="#000000" opacity="1.000000" stroke="none" 
	d="
M243.771149,103.197403 
	C246.557739,101.639229 249.267746,102.711922 251.880280,102.295456 
	C253.392609,102.054390 254.486465,102.933281 254.380997,104.624596 
	C254.127136,108.696266 254.981552,112.845535 253.712936,117.193268 
	C250.563660,115.685371 252.117691,113.069695 251.689026,111.091957 
	C251.224258,108.947617 253.013641,105.275948 248.959366,105.412979 
	C245.220764,105.539352 246.643799,109.067505 246.243637,111.312416 
	C245.895569,113.265198 247.231308,115.673218 244.010574,117.602028 
	C242.347107,112.713486 242.988449,108.105797 243.771149,103.197403 
z"/>
<path fill="#000000" opacity="1.000000" stroke="none" 
	d="
M370.322632,314.959717 
	C374.908905,312.681000 378.717041,313.377319 381.808746,316.922607 
	C383.881256,319.299133 384.074921,322.180359 382.297394,324.723938 
	C380.187378,327.743286 377.065277,327.883759 373.849701,326.620300 
	C370.293976,325.223236 367.992432,322.781952 368.356750,318.738708 
	C368.466095,317.525116 369.434875,316.388947 370.322632,314.959717 
M377.384247,324.522034 
	C379.625488,324.039825 381.129242,322.795044 380.338196,320.397583 
	C379.571136,318.072723 377.653503,316.684113 375.180420,316.416504 
	C373.321686,316.215393 371.886993,317.162933 371.521942,318.985321 
	C371.000946,321.586365 372.879852,322.802246 374.854584,323.805664 
	C375.433228,324.099731 376.073334,324.272980 377.384247,324.522034 
z"/>
<path fill="#000000" opacity="1.000000" stroke="none" 
	d="
M114.535156,202.303055 
	C117.039528,203.342392 119.749199,203.311356 121.097160,205.777252 
	C118.924690,207.897705 117.014114,205.457458 115.022263,206.230713 
	C110.838387,210.784775 115.290993,212.065247 118.826569,213.584763 
	C115.186707,215.553085 109.646225,214.119934 104.550888,210.402054 
	C105.821297,207.462128 109.696716,211.583618 111.026932,207.809601 
	C112.428406,203.833359 108.383987,203.947739 107.026062,201.572479 
	C109.774765,199.981964 111.926949,201.865875 114.535156,202.303055 
z"/>
<path fill="#000000" opacity="1.000000" stroke="none" 
	d="
M124.751846,321.912903 
	C121.558968,322.942383 119.319550,325.810730 115.909142,325.093506 
	C115.046249,322.197784 118.752296,322.882446 118.708832,320.653564 
	C117.476219,318.186401 113.313324,320.498535 112.097183,316.142059 
	C118.771866,318.746033 121.717903,314.494507 124.233833,309.081451 
	C126.409019,313.110016 123.343895,315.271790 123.156769,317.944794 
	C124.964981,319.627472 126.996231,316.282135 128.775940,318.454987 
	C128.724091,320.736176 126.390686,320.707642 124.751846,321.912903 
z"/>
<path fill="#000000" opacity="1.000000" stroke="none" 
	d="
M131.439148,183.062881 
	C124.902397,183.561890 126.693161,187.773407 127.173729,191.734436 
	C122.740662,188.477829 119.186218,184.822449 116.219193,179.113525 
	C122.318619,179.145020 127.214752,179.731171 131.932327,181.618774 
	C132.030273,181.657974 131.820755,182.465591 131.439148,183.062881 
z"/>
<path fill="#000000" opacity="1.000000" stroke="none" 
	d="
M346.744568,148.923477 
	C343.012451,147.987839 339.652863,147.140305 336.314697,149.833542 
	C336.591644,146.313416 342.808350,138.248276 345.142670,137.990540 
	C347.285522,137.753937 348.310516,139.496292 349.499756,140.800674 
	C350.841644,142.272400 351.072235,144.001846 350.273468,145.859253 
	C349.647125,147.315842 348.520935,148.214401 346.744568,148.923477 
M345.556396,146.026672 
	C347.459625,145.369308 348.287231,144.220673 347.052338,142.346771 
	C346.535461,141.562378 345.660217,141.462784 344.920380,142.088257 
	C343.409912,143.365204 342.888519,144.687714 345.556396,146.026672 
z"/>
<path fill="#000000" opacity="1.000000" stroke="none" 
	d="
M372.969788,183.864502 
	C375.486816,182.314606 377.788727,181.341873 380.392883,181.962326 
	C384.424133,182.922775 385.596680,186.975815 382.869171,190.620865 
	C380.699036,189.335144 383.054565,184.430374 378.829102,185.103973 
	C376.311218,185.505371 378.937622,188.104156 377.671600,189.383270 
	C375.869507,190.191437 375.583069,187.405731 373.550323,187.808975 
	C370.412415,190.903625 374.526855,192.123077 376.182190,194.459518 
	C373.399536,195.705399 371.657715,194.756256 370.573547,192.793961 
	C368.694000,189.391998 369.454498,186.398453 372.969788,183.864502 
z"/>
<path fill="#000000" opacity="1.000000" stroke="none" 
	d="
M205.976639,115.131401 
	C206.423187,115.313957 206.669830,115.477402 206.647232,115.534760 
	C204.588882,120.758972 204.587509,120.758430 210.303558,121.628853 
	C205.694366,126.587448 202.910843,126.140434 200.893539,120.115013 
	C200.471802,118.855347 200.071274,117.588577 199.647369,116.329666 
	C197.704727,110.560471 199.929611,108.325920 206.652863,109.411247 
	C206.516205,112.317375 202.999573,111.314575 202.100723,113.434303 
	C202.158798,116.198318 204.138809,115.162064 205.976639,115.131401 
z"/>
<path fill="#000000" opacity="1.000000" stroke="none" 
	d="
M398.743164,240.364883 
	C400.638397,243.948654 400.898987,246.823959 396.764313,248.879837 
	C395.338470,246.363068 399.484314,242.803345 395.009369,241.516068 
	C392.879211,240.903290 390.696503,240.792404 388.780029,242.133759 
	C385.688354,244.297699 389.006958,246.565399 388.885620,248.949219 
	C386.094757,249.711288 385.227142,247.902664 384.792969,245.918442 
	C384.164673,243.047134 384.988190,240.459686 387.721008,239.148651 
	C391.384674,237.391052 395.106628,237.364075 398.743164,240.364883 
z"/>
<path fill="#000000" opacity="1.000000" stroke="none" 
	d="
M328.335205,369.410095 
	C333.162231,374.467712 326.261963,372.693604 326.110168,374.944763 
	C323.728058,370.462738 321.422119,366.552582 317.779572,363.598114 
	C318.448059,361.235840 320.282715,360.651794 322.424591,360.068695 
	C324.001556,363.329956 325.715179,366.475006 328.335205,369.410095 
z"/>
<path fill="#000000" opacity="1.000000" stroke="none" 
	d="
M98.777420,237.231079 
	C100.352913,235.138443 102.819138,235.323883 104.728058,233.957535 
	C104.278191,231.077896 100.020920,231.547043 99.718704,228.555252 
	C104.739655,227.711212 112.936600,233.588043 112.792908,238.508942 
	C109.842041,234.835022 106.799683,236.196899 103.544792,237.430008 
	C102.126671,237.967255 100.307884,240.738342 98.777420,237.231079 
z"/>
<path fill="#000000" opacity="1.000000" stroke="none" 
	d="
M396.335571,273.563599 
	C394.854218,271.039734 392.530640,271.523865 390.434204,271.333282 
	C388.319092,271.140991 386.121582,271.211761 384.236511,269.095490 
	C388.626373,266.052856 395.314667,272.381897 398.491608,264.512848 
	C399.896057,269.172180 399.443756,272.652435 398.197540,276.086395 
	C396.108582,275.995087 396.420105,274.831665 396.335571,273.563599 
z"/>
<path fill="#000000" opacity="1.000000" stroke="none" 
	d="
M274.214722,115.395195 
	C274.924744,119.655327 273.169189,120.038750 269.816284,118.624115 
	C270.658752,114.039444 273.437744,109.758163 271.700745,104.965950 
	C273.624451,103.920906 275.053314,104.432228 276.656982,105.636078 
	C275.649078,108.701134 273.963013,111.641991 274.214722,115.395195 
z"/>
<path fill="#000000" opacity="1.000000" stroke="none" 
	d="
M304.057556,291.934662 
	C307.050110,283.094604 305.679352,274.932831 301.316742,266.290344 
	C312.536621,272.494354 310.393219,297.082306 299.344971,303.257233 
	C299.897827,298.954895 303.120667,296.100800 304.057556,291.934662 
z"/>
<path fill="#000000" opacity="1.000000" stroke="none" 
	d="
M198.287323,285.618408 
	C198.421280,291.533112 201.675308,295.952576 202.982529,301.144684 
	C198.233307,297.656067 195.828644,292.600189 194.966461,287.031982 
	C193.712296,278.932251 194.913284,271.260742 201.705017,265.311127 
	C199.343033,271.764587 197.324265,278.237213 198.287323,285.618408 
z"/>
</svg>