<?xml version="1.0" standalone="no"?>
<!DOCTYPE svg PUBLIC "-//W3C//DTD SVG 20010904//EN"
 "http://www.w3.org/TR/2001/REC-SVG-20010904/DTD/svg10.dtd">
<svg version="1.0" xmlns="http://www.w3.org/2000/svg"
 width="500.000000pt" height="500.000000pt" viewBox="0 0 500.000000 500.000000"
 preserveAspectRatio="xMidYMid meet">

<g transform="translate(0.000000,500.000000) scale(0.100000,-0.100000)"
fill="#000000" stroke="none">
<path d="M2340 4154 c-299 -38 -572 -141 -800 -302 -121 -85 -306 -270 -393
-392 -79 -112 -184 -318 -226 -447 -184 -562 -46 -1193 361 -1637 299 -327
706 -515 1153 -533 586 -24 1137 263 1458 757 293 453 347 1006 147 1512 -138
347 -397 641 -739 839 -150 87 -376 163 -556 189 -87 12 -349 21 -405 14z
m495 -53 c206 -45 390 -123 566 -239 88 -58 259 -200 294 -244 6 -7 34 -41 63
-76 247 -299 372 -649 374 -1047 1 -179 -16 -298 -63 -458 -182 -610 -710
-1066 -1340 -1158 -140 -20 -375 -16 -514 10 -664 122 -1171 615 -1317 1284
-20 89 -23 131 -23 332 0 253 11 325 75 517 181 541 662 966 1218 1077 146 30
142 29 362 26 165 -2 225 -7 305 -24z"/>
<path d="M2430 3908 c0 -84 12 -85 14 -1 1 58 1 58 34 61 l32 3 0 -65 c0 -37
4 -66 10 -66 6 0 10 30 10 70 l0 70 -50 0 -50 0 0 -72z"/>
<path d="M2713 3902 c-2 -31 -7 -58 -13 -60 -17 -6 -11 -22 8 -22 14 0 17 10
19 51 2 27 8 59 13 70 9 15 7 19 -7 19 -15 0 -18 -10 -20 -58z"/>
<path d="M2010 3909 c-13 -6 -26 -12 -28 -14 -2 -2 6 -33 17 -68 l22 -65 34
11 c19 6 35 14 35 18 0 5 -12 4 -27 -2 -20 -7 -28 -6 -35 3 -14 22 -9 38 15
49 21 9 20 9 -5 6 -21 -3 -29 1 -34 16 -6 20 9 37 34 37 6 0 12 5 12 10 0 12
-7 12 -40 -1z"/>
<path d="M2929 3850 c-12 -28 -30 -55 -40 -61 -11 -5 -19 -15 -19 -21 0 -9 3
-9 11 -1 16 16 100 -13 92 -33 -3 -8 0 -14 6 -14 6 0 11 11 11 23 0 13 9 49
19 80 l19 56 -30 10 c-45 16 -45 16 -69 -39z m72 15 c0 -6 -5 -29 -12 -52 -12
-43 -17 -47 -54 -37 -21 5 -21 6 4 59 20 44 28 52 43 46 11 -4 19 -11 19 -16z"/>
<path d="M1805 3790 c15 -29 15 -30 -16 -45 -17 -9 -32 -15 -33 -13 -2 2 -10
14 -19 28 -9 13 -17 19 -17 12 0 -18 53 -122 62 -122 11 0 10 7 -6 39 -14 27
-14 28 18 43 32 16 33 16 50 -14 10 -16 20 -27 23 -24 7 7 -58 126 -69 126 -5
0 -2 -13 7 -30z"/>
<path d="M3188 3768 c-46 -73 -59 -98 -49 -98 5 0 22 22 38 50 15 27 32 50 36
50 4 0 18 -7 32 -16 l24 -15 -30 -51 c-17 -28 -27 -53 -24 -56 6 -7 4 -9 44
57 35 58 35 56 -21 86 -34 19 -33 19 -50 -7z"/>
<path d="M2262 3609 c-209 -44 -393 -143 -555 -298 -99 -94 -225 -273 -215
-303 2 -6 19 15 37 48 113 199 303 369 520 465 176 78 385 111 561 90 384 -47
661 -233 877 -589 8 -13 17 -21 20 -18 9 9 -72 139 -137 219 -159 199 -414
348 -669 392 -119 21 -323 18 -439 -6z"/>
<path d="M3396 3579 c-45 -51 -56 -80 -16 -44 16 14 23 16 32 7 15 -15 51 -15
66 0 18 18 14 42 -12 67 l-23 22 -47 -52z m74 -23 c-16 -20 -34 -20 -50 -1
-10 13 -9 19 5 36 19 20 19 20 39 0 16 -17 17 -23 6 -35z"/>
<path d="M1500 3616 c0 -14 75 -105 86 -106 19 0 46 38 42 61 -5 33 -31 46
-62 29 -23 -12 -28 -11 -46 5 -11 10 -20 15 -20 11z m120 -51 c0 -7 -7 -18
-15 -25 -13 -10 -19 -10 -35 5 -26 23 -25 30 3 42 24 11 47 1 47 -22z"/>
<path d="M1330 3449 l-22 -30 40 -35 c22 -19 43 -44 45 -57 4 -19 4 -19 6 4 1
19 -9 36 -34 58 -30 26 -34 34 -25 51 6 11 13 20 17 20 3 0 26 -16 50 -36 24
-20 46 -34 49 -31 5 5 -86 87 -98 87 -4 0 -16 -14 -28 -31z"/>
<path d="M3578 3402 c-26 -20 -47 -41 -48 -46 0 -5 30 -6 67 -3 l68 5 -45 -39
c-25 -21 -41 -39 -36 -39 13 0 106 73 106 84 0 5 -28 6 -67 3 l-68 -7 45 40
c57 50 40 51 -22 2z"/>
<path d="M2628 3386 c-100 -36 -207 -133 -230 -208 -6 -21 -13 -38 -16 -38 -3
0 -26 19 -51 43 -140 131 -314 171 -510 117 -43 -11 -43 -12 -38 -47 20 -119
122 -245 251 -309 78 -38 83 -39 185 -39 58 0 118 3 134 8 26 7 27 6 27 -35 0
-96 -60 -352 -89 -381 -5 -5 -33 3 -63 17 -174 82 -358 -44 -401 -275 -14 -76
2 -176 39 -255 52 -110 177 -201 310 -224 67 -11 186 5 243 34 28 15 33 14
104 -20 209 -99 484 -23 608 168 77 119 92 295 36 411 -36 71 -95 133 -160
163 -62 29 -179 33 -248 9 -23 -9 -46 -12 -49 -8 -4 5 -15 31 -25 58 -24 66
-104 226 -148 295 -20 30 -33 58 -31 62 3 5 18 8 33 8 73 0 184 88 224 179 25
57 33 163 17 230 l-12 51 -51 0 c-29 -1 -68 -7 -89 -14z m56 -93 c-44 -76 -68
-113 -75 -113 -10 0 -19 40 -19 83 0 35 3 39 43 57 23 11 50 20 60 20 17 0 16
-5 -9 -47z m46 -31 c0 -33 -8 -45 -37 -61 -40 -21 -42 -11 -10 43 34 57 47 62
47 18z m-146 -90 c8 -24 -67 -113 -82 -97 -5 6 -12 37 -15 69 -6 59 -6 60 36
100 l41 41 7 -47 c4 -25 10 -55 13 -66z m-601 51 c4 -20 5 -39 3 -41 -2 -2
-30 12 -62 30 l-59 33 30 6 c71 15 82 12 88 -28z m118 19 c9 -10 32 -123 26
-128 -3 -3 -27 6 -54 20 -41 20 -51 31 -61 64 -19 63 -18 65 36 57 26 -4 50
-10 53 -13z m100 -41 c42 -27 47 -34 57 -87 7 -31 10 -59 7 -62 -2 -3 -26 4
-52 16 -49 21 -61 41 -77 125 -9 46 2 47 65 8z m-234 -36 c51 -27 93 -52 93
-55 0 -3 -20 -16 -44 -29 l-45 -23 -30 34 c-32 35 -90 133 -75 127 5 -2 51
-26 101 -54z m734 -24 c-21 -41 -60 -61 -119 -61 l-24 0 29 36 c19 24 46 42
78 53 28 9 51 16 53 15 2 -1 -6 -20 -17 -43z m-228 -53 c6 -41 4 -49 -15 -62
-12 -9 -24 -14 -26 -11 -2 2 1 34 8 70 14 73 24 74 33 3z m-132 -19 c17 -27
29 -52 26 -55 -2 -3 -20 1 -39 9 -35 15 -48 42 -48 99 0 28 20 11 61 -53z
m-179 -1 c32 -13 58 -26 58 -29 0 -10 -86 -59 -102 -59 -18 0 -118 52 -118 61
0 10 70 48 90 49 8 0 40 -10 72 -22z m478 -7 c0 -16 -103 -61 -139 -61 l-35 0
29 30 c23 24 37 30 84 33 31 2 57 4 59 5 1 1 2 -2 2 -7z m-309 -64 l34 -14
-53 -11 c-65 -15 -142 -16 -142 -2 0 5 17 19 38 30 39 21 67 20 123 -3z m177
-195 c91 -153 160 -318 142 -336 -17 -17 -81 -6 -123 22 -32 22 -52 27 -99 27
-32 0 -58 1 -58 2 0 2 11 40 24 86 14 46 30 130 37 185 14 117 16 117 77 14z
m481 -356 c41 -22 88 -76 113 -131 31 -69 31 -186 -1 -267 -56 -144 -203 -239
-371 -240 -90 -1 -128 7 -197 39 -76 36 -128 86 -162 155 -26 52 -31 73 -31
136 0 90 24 147 84 198 69 59 148 70 264 34 42 -13 77 -18 99 -14 48 9 49 22
2 22 -48 1 -45 0 -54 33 -5 21 -2 27 22 38 66 31 169 29 232 -3z m-763 -12
c54 -42 111 -61 127 -45 8 8 5 11 -11 11 -28 0 -28 15 0 34 32 23 148 20 148
-3 0 -4 -15 -12 -33 -19 -48 -17 -116 -88 -144 -150 -22 -48 -25 -64 -21 -140
5 -98 26 -153 84 -220 38 -44 37 -46 -33 -67 -130 -40 -273 2 -367 105 -63 70
-81 120 -81 230 1 85 4 101 30 153 48 95 119 146 207 147 38 0 55 -6 94 -36z"/>
<path d="M3037 2282 c22 -71 13 -179 -21 -243 -17 -33 -21 -47 -11 -39 55 46
82 193 51 275 -24 61 -38 66 -19 7z"/>
<path d="M1974 2313 c-24 -41 -28 -59 -28 -123 0 -57 5 -85 21 -115 37 -69 54
-83 26 -20 -35 78 -37 186 -5 258 12 26 20 47 18 47 -2 0 -17 -21 -32 -47z"/>
<path d="M1165 3210 c-2 -3 18 -30 45 -60 27 -30 49 -50 50 -44 0 5 -5 15 -11
21 -18 18 17 62 44 55 13 -3 19 -1 14 4 -11 11 -136 33 -142 24z m62 -16 c19
-5 21 -10 12 -25 -11 -22 -24 -18 -39 12 -11 20 -8 22 27 13z"/>
<path d="M3750 3179 c-59 -24 -78 -70 -42 -102 21 -19 42 -22 42 -7 0 6 -7 10
-15 10 -24 0 -36 34 -20 56 14 18 15 18 36 -6 17 -21 20 -22 14 -5 -11 34 -10
39 8 43 24 5 49 -18 44 -40 -3 -10 -1 -18 4 -18 18 0 8 49 -13 64 -26 18 -25
18 -58 5z"/>
<path d="M1065 2990 c3 -5 12 -10 18 -10 29 -1 37 -16 26 -48 -13 -36 -10 -35
-43 -22 -15 5 -26 6 -26 1 0 -5 24 -17 53 -27 28 -9 58 -19 65 -22 6 -2 12 0
12 6 0 6 -13 13 -30 17 -16 4 -30 8 -30 9 0 2 5 17 11 35 10 29 14 31 45 25
53 -10 40 2 -28 25 -69 24 -82 25 -73 11z"/>
<path d="M3838 2922 c-32 -9 -58 -20 -58 -25 0 -4 8 -6 18 -3 40 12 72 18 72
13 0 -2 -18 -17 -40 -32 -22 -15 -37 -31 -35 -35 3 -5 29 -11 58 -16 l52 -7
-49 -17 c-71 -24 -43 -31 32 -8 65 20 74 37 19 39 -18 1 -45 4 -62 8 l-30 6
53 40 c77 58 71 65 -30 37z"/>
<path d="M990 2722 c0 -5 19 -17 41 -28 44 -19 45 -19 -25 -44 -16 -6 -26 -13
-23 -16 3 -4 29 2 57 12 51 18 52 18 67 -1 15 -20 15 -20 11 0 -2 11 -27 33
-62 52 -64 36 -66 37 -66 25z"/>
<path d="M3857 2602 c-20 -22 -22 -53 -5 -70 21 -21 32 -13 12 9 -14 15 -16
24 -8 37 17 27 59 38 90 23 23 -10 25 -16 20 -42 -3 -19 -2 -28 4 -24 14 9 12
59 -2 73 -19 19 -92 15 -111 -6z"/>
<path d="M1037 2453 c-84 -5 -84 -19 -2 -46 l59 -20 -57 -29 c-87 -43 -70 -59
43 -39 l45 8 -55 3 -55 2 53 24 c29 13 51 28 48 33 -3 4 -26 14 -51 21 -58 16
-58 30 0 30 25 0 45 5 45 10 0 6 -1 9 -2 8 -2 -1 -34 -3 -71 -5z"/>
<path d="M3968 2333 c-5 -20 -11 -21 -69 -17 -45 2 -57 1 -39 -5 14 -5 42 -9
63 -10 33 -1 37 -4 38 -28 1 -23 3 -21 10 12 10 43 8 86 -3 48z"/>
<path d="M1062 2140 c-61 -25 -45 -110 22 -110 19 0 45 9 60 21 63 49 -2 121
-82 89z m83 -45 c0 -40 -41 -65 -79 -47 -18 8 -26 19 -26 36 0 31 25 47 70 43
32 -2 35 -5 35 -32z"/>
<path d="M3790 2094 c-6 -16 -8 -39 -5 -52 4 -18 12 -23 33 -21 15 2 37 -2 48
-9 27 -14 49 1 58 40 6 25 3 28 -41 42 -27 8 -56 17 -65 21 -13 5 -20 0 -28
-21z m51 -4 c14 0 10 -36 -6 -50 -20 -17 -35 -4 -35 32 0 23 4 29 16 24 9 -3
20 -6 25 -6z m58 -19 c16 -11 6 -51 -14 -51 -19 0 -27 17 -20 40 7 22 13 24
34 11z"/>
<path d="M1455 2058 c14 -44 88 -171 146 -248 170 -226 444 -387 726 -429 152
-23 352 -9 502 35 78 23 227 94 301 144 87 59 212 180 279 270 60 80 147 238
137 247 -8 8 -8 8 -46 -67 -173 -347 -507 -579 -893 -620 -246 -27 -519 42
-729 184 -159 106 -322 295 -388 448 -24 56 -48 81 -35 36z"/>
<path d="M1212 1872 c-17 -41 -18 -41 -57 -35 -47 7 -41 -6 6 -16 41 -8 48
-27 14 -35 -21 -5 -37 -26 -20 -26 13 0 127 62 122 66 -2 3 -16 -1 -31 -7 -36
-17 -42 -6 -21 41 10 22 15 43 12 47 -4 3 -15 -12 -25 -35z"/>
<path d="M3696 1854 c-53 -52 36 -142 99 -100 40 26 32 77 -16 101 -36 19 -64
19 -83 -1z m88 -23 c27 -29 17 -65 -18 -69 -29 -4 -76 29 -76 53 0 36 66 47
94 16z"/>
<path d="M3361 1534 c-12 -15 -21 -34 -21 -44 0 -10 9 -29 21 -44 28 -36 82
-36 105 -1 9 14 12 30 8 37 -6 9 -10 5 -14 -12 -8 -35 -43 -38 -75 -6 -26 26
-34 65 -12 67 6 1 21 0 32 -1 16 -2 17 0 6 14 -18 22 -26 20 -50 -10z"/>
<path d="M1635 1531 c3 -6 -12 -9 -36 -8 -51 2 -72 -20 -51 -54 10 -16 11 -24
3 -29 -8 -4 -5 -13 9 -25 11 -10 20 -13 20 -8 0 7 15 9 39 6 49 -7 68 18 46
60 -12 24 -12 27 2 27 14 0 13 4 -5 20 -22 21 -37 27 -27 11z m-34 -52 c-32
-30 -52 -10 -21 21 16 16 25 19 33 11 8 -8 5 -17 -12 -32z m47 -21 c-2 -15
-11 -24 -25 -26 -27 -4 -29 5 -6 30 22 24 35 23 31 -4z"/>
<path d="M3189 1390 c-13 -10 -19 -19 -12 -20 15 0 75 -85 66 -94 -4 -3 -2 -6
3 -6 15 0 51 29 37 30 -16 0 -76 88 -68 100 10 16 -1 12 -26 -10z"/>
<path d="M1793 1337 c-7 -51 -11 -61 -26 -59 -21 3 -23 -14 -3 -21 8 -3 42 12
75 35 57 38 69 58 35 58 -8 0 -13 -4 -9 -9 5 -9 -31 -41 -45 -41 -4 0 -5 14
-2 30 2 17 8 30 13 30 15 0 10 15 -10 27 -18 11 -20 8 -28 -50z"/>
<path d="M2988 1283 c-34 -14 -51 -33 -30 -33 10 0 45 -74 45 -95 0 -18 0 -18
42 -1 40 17 57 44 44 69 -6 9 -16 17 -24 17 -9 0 -12 6 -9 15 6 15 -12 46 -25
44 -3 -1 -23 -8 -43 -16z m46 -19 c7 -19 -1 -34 -19 -34 -15 0 -28 27 -19 41
9 14 31 10 38 -7z m34 -67 c4 -22 -27 -35 -39 -16 -5 8 -9 20 -9 27 0 20 44
10 48 -11z"/>
<path d="M2026 1257 c8 -21 -21 -73 -51 -93 -14 -9 -25 -23 -25 -31 0 -12 3
-13 15 -3 21 18 85 -5 85 -31 0 -10 4 -19 9 -19 12 0 23 29 15 42 -7 11 25
100 40 110 10 7 -20 22 -70 34 -19 5 -23 3 -18 -9z m48 -15 c7 -12 -27 -102
-39 -102 -33 1 -35 17 -9 63 25 46 37 56 48 39z"/>
<path d="M2739 1203 c-15 -4 -15 -7 -2 -33 8 -16 15 -47 16 -70 1 -30 5 -39
15 -35 7 3 20 5 28 5 8 0 14 5 14 10 0 6 -5 9 -12 8 -21 -5 -20 30 1 37 30 9
44 32 37 60 -5 21 -12 25 -44 24 -20 -1 -44 -3 -53 -6z m66 -38 c0 -38 -26
-40 -36 -3 -8 30 -2 40 21 36 9 -2 15 -14 15 -33z"/>
<path d="M2257 1172 c-21 -23 -22 -85 -2 -102 19 -16 77 -18 82 -3 3 7 -8 11
-29 10 -31 -2 -33 0 -36 36 -2 21 2 45 9 53 15 19 49 18 49 -1 0 -8 5 -15 10
-15 6 0 10 9 10 20 0 17 -7 20 -38 20 -25 0 -45 -7 -55 -18z"/>
<path d="M2495 1110 l0 -70 53 0 c47 0 52 2 52 22 0 20 -1 20 -18 5 -28 -26
-52 -22 -52 9 0 21 4 25 20 21 15 -4 20 0 20 14 0 17 -3 18 -20 9 -18 -10 -20
-8 -20 20 0 23 4 30 19 30 11 0 21 -6 24 -12 2 -7 8 -10 12 -6 15 14 -8 28
-48 28 l-42 0 0 -70z"/>
</g>
</svg>
